HIERARCHY
ROOT joint_Root
{
	OFFSET 0.0 0.0 0.0
	CHANNELS 6 Xposition Yposition Zposition Zrotation Xrotation Yrotation 
	JOINT Hips
	{
		OFFSET -0.726466 93.3139 -2.00062
		CHANNELS 6 Xposition Yposition Zposition Zrotation Xrotation Yrotation 
		JOINT Spine
		{
			OFFSET 15.7357 0.0 0.0
			CHANNELS 6 Xposition Yposition Zposition Zrotation Xrotation Yrotation 
			JOINT Chest
			{
				OFFSET 8.98455 -0.406207 0.0
				CHANNELS 6 Xposition Yposition Zposition Zrotation Xrotation Yrotation 
				JOINT Neck
				{
					OFFSET 16.3773 0.0 0.0
					CHANNELS 6 Xposition Yposition Zposition Zrotation Xrotation Yrotation 
					JOINT Head
					{
						OFFSET 6.45672 0.0 0.0
						CHANNELS 6 Xposition Yposition Zposition Zrotation Xrotation Yrotation 
						End Site
						{
							OFFSET 0.0 0.0 0.0
						}
					}
				}
				JOINT Shoulder_L
				{
					OFFSET 12.9942 -0.242716 4.98039
					CHANNELS 6 Xposition Yposition Zposition Zrotation Xrotation Yrotation 
					JOINT UpperArm_L
					{
						OFFSET 5.34809 0.0 0.0
						CHANNELS 6 Xposition Yposition Zposition Zrotation Xrotation Yrotation 
						JOINT LowerArm_L
						{
							OFFSET 24.3286 1.87007e-05 0.0
							CHANNELS 6 Xposition Yposition Zposition Zrotation Xrotation Yrotation 
							JOINT Hand_L
							{
								OFFSET 22.2916 0.0 0.0
								CHANNELS 6 Xposition Yposition Zposition Zrotation Xrotation Yrotation 
								End Site
								{
									OFFSET 0.0 0.0 0.0
								}
							}
						}
					}
				}
				JOINT Shoulder_R
				{
					OFFSET 12.9945 -0.242716 -4.98039
					CHANNELS 6 Xposition Yposition Zposition Zrotation Xrotation Yrotation 
					JOINT UpperArm_R
					{
						OFFSET -5.34813 0.0 0.0
						CHANNELS 6 Xposition Yposition Zposition Zrotation Xrotation Yrotation 
						JOINT LowerArm_R
						{
							OFFSET -24.3289 0.000322201 0.0
							CHANNELS 6 Xposition Yposition Zposition Zrotation Xrotation Yrotation 
							JOINT Hand_R
							{
								OFFSET -22.2915 -0.000108084 0.0
								CHANNELS 6 Xposition Yposition Zposition Zrotation Xrotation Yrotation 
								End Site
								{
									OFFSET 0.0 0.0 0.0
								}
							}
						}
					}
				}
			}
		}
		JOINT UpperLeg_L
		{
			OFFSET -2.19248 -6.46944 0.0
			CHANNELS 6 Xposition Yposition Zposition Zrotation Xrotation Yrotation 
			JOINT LowerLeg_L
			{
				OFFSET 39.0811 0.0 -1.23785e-05
				CHANNELS 6 Xposition Yposition Zposition Zrotation Xrotation Yrotation 
				JOINT Foot_L
				{
					OFFSET 40.9854 0.0 -1.26872e-05
					CHANNELS 6 Xposition Yposition Zposition Zrotation Xrotation Yrotation 
					JOINT Toes_L
					{
						OFFSET 11.7543 0.0 0.0
						CHANNELS 6 Xposition Yposition Zposition Zrotation Xrotation Yrotation 
						End Site
						{
							OFFSET 0.0 0.0 0.0
						}
					}
				}
			}
		}
		JOINT UpperLeg_R
		{
			OFFSET -2.19251 6.46944 0.0
			CHANNELS 6 Xposition Yposition Zposition Zrotation Xrotation Yrotation 
			JOINT LowerLeg_R
			{
				OFFSET -39.0811 -0.00228153 -0.0401928
				CHANNELS 6 Xposition Yposition Zposition Zrotation Xrotation Yrotation 
				JOINT Foot_R
				{
					OFFSET -40.9854 0.0 0.0
					CHANNELS 6 Xposition Yposition Zposition Zrotation Xrotation Yrotation 
					JOINT Toes_R
					{
						OFFSET -11.7543 0.0 0.0
						CHANNELS 6 Xposition Yposition Zposition Zrotation Xrotation Yrotation 
						End Site
						{
							OFFSET 0.0 0.0 0.0
						}
					}
				}
			}
		}
	}
}
MOTION
Frames:	4
Frame Time:	0.0333333
0.000000 0.000000 0.000000 0.000000 0.000000 -0.000000 -1.447300 88.646200 62.591800 -86.558300 11.974800 -176.641000 15.735700 0.000005 -0.000001 113.600000 82.873500 -112.373000 8.984550 -0.406207 -0.000000 5.255770 5.666790 2.190880 16.377300 -0.000001 -0.000001 2.349050 0.719334 0.050453 6.456720 -0.000001 -0.000000 3.651370 -2.169570 -2.880890 12.994200 -0.242716 4.980390 -89.057100 -2.339160 -68.037800 5.348090 -0.000007 -0.000001 -78.340200 17.057600 9.135470 24.328600 0.000019 0.000005 1.782700 13.976800 -7.342660 22.291600 -0.000001 0.000005 5.958190 5.311380 -0.249169 12.994500 -0.242716 -4.980390 88.826700 4.680350 -75.909300 -5.348130 -0.000001 -0.000004 -48.615500 23.806000 -46.286300 -24.328900 0.000322 -0.000009 2.781590 3.523370 -38.340800 -22.291500 -0.000108 -0.000004 15.319400 5.454360 -4.796020 -2.192480 -6.469440 -0.000000 -176.382000 -13.836000 -20.368400 39.081100 -0.000007 -0.000012 -0.000169 0.003627 2.651390 40.985400 -0.000006 -0.000013 -0.738966 -2.837710 -55.973000 11.754300 -0.000000 0.000003 -0.006237 -0.072979 -19.547100 -2.192510 6.469440 -0.000001 179.309000 12.422500 -171.445000 -39.081100 -0.002282 -0.040193 0.023359 -0.039817 26.728400 -40.985400 0.000008 0.000006 7.676820 7.361830 -77.311400 -11.754300 -0.000006 -0.000006 -0.220137 -0.333833 -21.550000
0.000000 0.000000 0.000000 0.000000 0.000000 -0.000000 -1.893510 88.120200 58.079400 -87.253200 11.917600 -176.745000 15.735700 0.000005 -0.000001 113.967000 82.966200 -113.053000 8.984550 -0.406207 -0.000000 5.063640 5.681030 1.576680 16.377300 -0.000001 -0.000001 2.272250 0.715660 0.143459 6.456720 -0.000001 -0.000000 3.555960 -2.192860 -2.748940 12.994200 -0.242716 4.980390 -89.187800 -2.010490 -67.996000 5.348090 -0.000007 -0.000001 -77.560400 15.905300 8.666500 24.328600 0.000019 0.000005 1.662780 14.492700 -6.616390 22.291600 -0.000001 0.000005 6.511190 5.294990 0.212441 12.994500 -0.242716 -4.980390 88.753600 4.994710 -75.969300 -5.348130 -0.000001 -0.000004 -49.412000 23.236500 -45.074900 -24.328900 0.000322 -0.000009 2.499830 3.006130 -39.789800 -22.291500 -0.000108 -0.000004 16.141000 5.465660 -5.208960 -2.192480 -6.469440 -0.000000 -178.530000 -13.704500 -25.808100 39.081100 -0.000007 -0.000012 0.048841 -0.210926 13.037600 40.985400 -0.000006 -0.000013 3.761530 -5.544190 -56.694200 11.754300 -0.000000 0.000003 -0.006749 -0.077507 -19.731800 -2.192510 6.469440 -0.000001 177.336000 11.390800 -170.511000 -39.081100 -0.002282 -0.040193 0.003220 0.000151 29.121500 -40.985400 0.000008 0.000006 7.063090 7.545610 -74.153100 -11.754300 -0.000006 -0.000006 -3.508680 -3.416450 -26.887600
0.000000 0.000000 0.000000 0.000000 0.000000 -0.000000 -2.521750 87.884800 53.182000 -89.191300 11.598300 -176.574000 15.735700 0.000005 -0.000001 113.706000 83.109100 -113.519000 8.984550 -0.406207 -0.000000 4.861960 5.525300 0.138728 16.377300 -0.000001 -0.000001 2.367820 0.595425 0.409432 6.456720 -0.000001 -0.000000 3.491390 -2.288790 -2.692460 12.994200 -0.242716 4.980390 -89.469600 -1.322570 -68.143900 5.348090 -0.000007 -0.000001 -76.654500 15.276100 7.537500 24.328600 0.000019 0.000005 1.636080 14.320700 -6.586890 22.291600 -0.000001 0.000005 6.959010 5.289220 0.372580 12.994500 -0.242716 -4.980390 88.603400 5.607420 -75.990400 -5.348130 -0.000001 -0.000004 -50.547900 23.265100 -42.530600 -24.328900 0.000322 -0.000009 1.942620 2.295730 -40.272400 -22.291500 -0.000108 -0.000004 16.650800 5.475010 -5.558490 -2.192480 -6.469440 -0.000000 179.636000 -11.756300 -28.193700 39.081100 -0.000007 -0.000012 0.112239 -0.308731 19.978800 40.985400 -0.000006 -0.000013 3.798650 -5.921200 -47.836100 11.754300 -0.000000 0.000003 -0.007322 -0.082411 -19.932000 -2.192510 6.469440 -0.000001 173.849000 10.574200 -169.643000 -39.081100 -0.002282 -0.040193 0.008724 -0.008624 32.179400 -40.985400 0.000008 0.000006 6.395230 8.056900 -71.132400 -11.754300 -0.000006 -0.000006 -0.059372 -0.329727 -30.187700
0.000000 0.000000 0.000000 0.000000 0.000000 -0.000000 -3.126400 87.901800 47.839900 -90.888900 11.538300 -175.819000 15.735700 0.000005 -0.000001 113.295000 83.151200 -113.799000 8.984550 -0.406207 -0.000000 4.856440 5.419460 -1.237140 16.377300 -0.000001 -0.000001 2.478830 0.644271 0.595063 6.456720 -0.000001 -0.000000 3.705390 -2.472300 -2.293470 12.994200 -0.242716 4.980390 -89.692300 -0.762773 -68.028400 5.348090 -0.000007 -0.000001 -75.984100 15.901000 6.003460 24.328600 0.000019 0.000005 1.752800 13.551000 -7.440710 22.291600 -0.000001 0.000005 6.836410 5.307110 -0.128084 12.994500 -0.242716 -4.980390 88.437800 6.303370 -76.050500 -5.348130 -0.000001 -0.000004 -52.044200 24.321300 -38.891500 -24.328900 0.000322 -0.000009 1.689640 2.051290 -39.511200 -22.291500 -0.000108 -0.000004 16.810200 5.473810 -5.513270 -2.192480 -6.469440 -0.000000 178.227000 -9.841300 -27.808400 39.081100 -0.000007 -0.000012 0.069988 -0.147998 25.309600 40.985400 -0.000006 -0.000013 3.163780 -6.776320 -45.268800 11.754300 -0.000000 0.000003 -0.005451 -0.065777 -19.253400 -2.192510 6.469440 -0.000001 171.316000 8.572680 -169.454000 -39.081100 -0.002282 -0.040193 0.057039 -0.071753 36.838000 -40.985400 0.000008 0.000006 6.488560 6.909100 -65.005800 -11.754300 -0.000006 -0.000006 -0.144399 -0.543558 -39.527200
